<?xml version="1.0" encoding="utf-8"?>
<!-- Generator: Adobe Illustrator 24.0.2, SVG Export Plug-In . SVG Version: 6.00 Build 0)  -->
<svg version="1.1" id="Camada_1" xmlns="http://www.w3.org/2000/svg" xmlns:xlink="http://www.w3.org/1999/xlink" x="0px" y="0px"
	 viewBox="0 0 92 50" style="enable-background:new 0 0 92 50;" xml:space="preserve">
<style type="text/css">
	.st0{fill:#7F7F7F;}
	.st1{fill:#2D9AA9;}
	.st2{fill:#FFFFFF;}
	.st3{opacity:0.25;}
	.st4{opacity:0.3;fill:#FFFFFF;}
	.st5{opacity:0.3137;fill:#FAFAFA;}
	.st6{opacity:0.3275;fill:#F5F5F5;}
	.st7{opacity:0.3412;fill:#F0F0F0;}
	.st8{opacity:0.3549;fill:#EBEBEB;}
	.st9{opacity:0.3686;fill:#E6E6E6;}
	.st10{opacity:0.3824;fill:#E1E1E1;}
	.st11{opacity:0.3961;fill:#DCDCDC;}
	.st12{opacity:0.4098;fill:#D7D7D7;}
	.st13{opacity:0.4235;fill:#D2D2D2;}
	.st14{opacity:0.4373;fill:#CDCDCD;}
	.st15{opacity:0.451;fill:#C8C8C8;}
	.st16{opacity:0.4647;fill:#C3C3C3;}
	.st17{opacity:0.4784;fill:#BEBEBE;}
	.st18{opacity:0.4922;fill:#B9B9B9;}
	.st19{opacity:0.5059;fill:#B4B4B4;}
	.st20{opacity:0.5196;fill:#AFAFAF;}
	.st21{opacity:0.5333;fill:#AAAAAA;}
	.st22{opacity:0.5471;fill:#A5A5A5;}
	.st23{opacity:0.5608;fill:#A0A0A0;}
	.st24{opacity:0.5745;fill:#9B9B9B;}
	.st25{opacity:0.5882;fill:#969696;}
	.st26{opacity:0.602;fill:#919191;}
	.st27{opacity:0.6157;fill:#8C8C8C;}
	.st28{opacity:0.6294;fill:#878787;}
	.st29{opacity:0.6431;fill:#828282;}
	.st30{opacity:0.6569;fill:#7D7D7D;}
	.st31{opacity:0.6706;fill:#787878;}
	.st32{opacity:0.6843;fill:#737373;}
	.st33{opacity:0.698;fill:#6E6E6E;}
	.st34{opacity:0.7118;fill:#696969;}
	.st35{opacity:0.7255;fill:#646464;}
	.st36{opacity:0.7392;fill:#5F5F5F;}
	.st37{opacity:0.7529;fill:#5A5A5A;}
	.st38{opacity:0.7667;fill:#555555;}
	.st39{opacity:0.7804;fill:#505050;}
	.st40{opacity:0.7941;fill:#4B4B4B;}
	.st41{opacity:0.8078;fill:#464646;}
	.st42{opacity:0.8216;fill:#414141;}
	.st43{opacity:0.8353;fill:#3C3C3C;}
	.st44{opacity:0.849;fill:#373737;}
	.st45{opacity:0.8627;fill:#323232;}
	.st46{opacity:0.8765;fill:#2D2D2D;}
	.st47{opacity:0.8902;fill:#282828;}
	.st48{opacity:0.9039;fill:#232323;}
	.st49{opacity:0.9176;fill:#1E1E1E;}
	.st50{opacity:0.9314;fill:#191919;}
	.st51{opacity:0.9451;fill:#141414;}
	.st52{opacity:0.9588;fill:#0F0F0F;}
	.st53{opacity:0.9725;fill:#0A0A0A;}
	.st54{opacity:0.9863;fill:#050505;}
</style>
<g>
	<path class="st0" d="M-218.32,160.91l0.85-1.17c2.83,2.16,5.98,3.28,9.49,3.28c5.71,0,9.58-3.24,9.58-9.58v-4.09
		c-1.75,3.46-5.31,6.07-9.9,6.07c-5.9,0-11.07-4.59-11.07-10.71v-0.09c0-6.16,5.17-10.75,11.07-10.75c4.59,0,8.14,2.61,9.9,5.98
		v-5.44h1.48v19.21c0,3.33-1.08,5.98-2.92,7.83c-1.94,1.93-4.81,2.97-8.14,2.97C-211.79,164.42-215.21,163.25-218.32,160.91z
		 M-198.25,144.71v-0.09c0-5.26-4.63-9.36-9.9-9.36c-5.31,0-9.63,3.96-9.63,9.31v0.09c0,5.27,4.36,9.36,9.63,9.36
		C-202.88,154.02-198.25,149.97-198.25,144.71z"/>
	<path class="st0" d="M-173.68,145.74v-0.09c0-6.66,4.59-11.79,10.84-11.79c6.84,0,10.39,5.85,10.39,11.92c0,0.23,0,0.32,0,0.5
		h-19.66c0.27,6.17,4.63,9.99,9.72,9.99c3.51,0,6.34-1.85,8.15-4.19l1.08,0.86c-2.07,2.7-5.13,4.68-9.27,4.68
		C-168.55,157.62-173.68,152.99-173.68,145.74z M-154.02,144.98c-0.22-4.95-3.24-9.76-8.91-9.76c-5.13,0-8.91,4.18-9.18,9.76
		H-154.02z"/>
	<path class="st0" d="M-131.56,154.16l0.85-1.13c2.52,1.98,5.53,3.1,8.46,3.1c3.64,0,6.48-1.93,6.48-4.72v-0.09
		c0-3.2-3.42-4.18-6.88-5.13c-4.23-1.21-7.87-2.38-7.87-6.17v-0.09c0-3.38,3.1-5.94,7.74-5.94c2.61,0,5.58,0.9,7.96,2.52l-0.81,1.21
		c-2.16-1.53-4.81-2.38-7.2-2.38c-3.73,0-6.21,1.94-6.21,4.46v0.09c0,2.83,3.19,3.87,6.88,4.91c4.14,1.13,7.87,2.43,7.87,6.39v0.09
		c0,3.73-3.51,6.21-8.05,6.21C-125.57,157.49-129.08,156.23-131.56,154.16z"/>
	<path class="st0" d="M-90.07,151.28v-15.57h-3.46v-1.3h3.46v-7.61h1.44v7.61h8.23v1.3h-8.23v15.43c0,3.33,1.75,4.99,4.72,4.99
		c1.13,0,2.25-0.27,3.42-0.81v1.39c-1.13,0.54-2.29,0.77-3.55,0.77C-87.68,157.49-90.07,155.37-90.07,151.28z"/>
	<path class="st0" d="M-59.47,150.69v-0.09c0-4.72,4.27-7.29,10.03-7.29c3.15,0,5.89,0.54,8.1,1.26v-1.53c0-5.13-3.06-7.65-8.1-7.65
		c-2.79,0-5.13,0.77-7.38,1.89l-0.54-1.26c2.52-1.21,5-1.98,8.01-1.98c3.1,0,5.53,0.81,7.2,2.47c1.44,1.49,2.25,3.65,2.25,6.43
		v14.13h-1.44v-4.72c-1.17,2.47-4.32,5.26-9.54,5.26C-55.24,157.62-59.47,155.28-59.47,150.69z M-41.29,148.71v-2.79
		c-2.21-0.72-4.81-1.26-8.19-1.26c-5,0-8.46,2.12-8.46,5.85v0.09c0,3.73,3.38,5.67,7.15,5.67
		C-45.3,156.27-41.29,152.76-41.29,148.71z M-55.1,130.08c0.67-2.88,1.89-3.87,3.46-3.87c1.8,0,4.27,2.34,5.8,2.34
		c1.08,0,1.75-0.63,2.43-2.61l0.99,0.22c-0.67,2.88-1.89,3.83-3.46,3.83c-1.8,0-4.27-2.29-5.8-2.29c-1.08,0-1.75,0.58-2.43,2.61
		L-55.1,130.08z"/>
	<path class="st0" d="M-17.17,145.83v-0.09c0-6.34,4.81-11.88,11.79-11.88c6.93,0,11.7,5.44,11.7,11.79v0.09
		c0,6.34-4.77,11.88-11.74,11.88C-12.36,157.62-17.17,152.18-17.17,145.83z M4.79,145.79v-0.09c0-5.71-4.36-10.48-10.26-10.48
		c-5.98,0-10.13,4.77-10.13,10.48v0.09c0,5.71,4.32,10.49,10.21,10.49C0.6,156.27,4.79,151.5,4.79,145.79z"/>
	<path class="st0" d="M56.76,154.16l0.85-1.13c2.52,1.98,5.53,3.1,8.46,3.1c3.64,0,6.48-1.93,6.48-4.72v-0.09
		c0-3.2-3.42-4.18-6.88-5.13c-4.23-1.21-7.87-2.38-7.87-6.17v-0.09c0-3.38,3.1-5.94,7.74-5.94c2.61,0,5.58,0.9,7.96,2.52l-0.81,1.21
		c-2.16-1.53-4.81-2.38-7.2-2.38c-3.73,0-6.21,1.94-6.21,4.46v0.09c0,2.83,3.19,3.87,6.88,4.91c4.14,1.13,7.87,2.43,7.87,6.39v0.09
		c0,3.73-3.51,6.21-8.05,6.21C62.75,157.49,59.24,156.23,56.76,154.16z"/>
	<path class="st0" d="M95.91,145.74v-0.09c0-6.66,4.59-11.79,10.84-11.79c6.84,0,10.39,5.85,10.39,11.92c0,0.23,0,0.32,0,0.5H97.49
		c0.27,6.17,4.63,9.99,9.72,9.99c3.51,0,6.34-1.85,8.15-4.19l1.08,0.86c-2.07,2.7-5.13,4.68-9.27,4.68
		C101.04,157.62,95.91,152.99,95.91,145.74z M115.58,144.98c-0.22-4.95-3.24-9.76-8.91-9.76c-5.13,0-8.91,4.18-9.18,9.76H115.58z"/>
	<path class="st0" d="M140.15,134.41h1.44v5.08c0.99-2.65,3.69-5.62,7.74-5.62c4.54,0,7.02,2.74,8.01,5.98
		c1.13-2.97,4-5.98,8.14-5.98c5.17,0,8.59,3.51,8.59,9.67v13.54h-1.44v-13.41c0-5.49-2.88-8.46-7.24-8.46
		c-3.87,0-7.56,3.51-7.56,8.64v13.23h-1.44v-13.45c0-5.4-2.92-8.42-7.2-8.42c-3.96,0-7.6,3.78-7.6,8.68v13.18h-1.44V134.41z"/>
	<path class="st0" d="M227.99,134.41h1.44v6.25c1.57-3.78,5.08-6.79,10.03-6.79c6.12,0,11.2,4.9,11.2,11.83v0.09
		c0,6.88-5.08,11.83-11.2,11.83c-4.99,0-8.5-2.97-10.03-6.71v13.36h-1.44V134.41z M249.14,145.83v-0.09
		c0-5.98-4.19-10.48-9.81-10.48c-5.58,0-9.99,4.59-9.99,10.44v0.09c0,5.85,4.46,10.44,9.99,10.44
		C245.04,156.23,249.14,151.91,249.14,145.83z"/>
	<path class="st0" d="M272.09,150.69v-0.09c0-4.72,4.27-7.29,10.03-7.29c3.15,0,5.89,0.54,8.1,1.26v-1.53c0-5.13-3.06-7.65-8.1-7.65
		c-2.79,0-5.13,0.77-7.38,1.89l-0.54-1.26c2.52-1.21,5-1.98,8.01-1.98c3.1,0,5.53,0.81,7.2,2.47c1.44,1.49,2.25,3.65,2.25,6.43
		v14.13h-1.44v-4.72c-1.17,2.47-4.32,5.26-9.54,5.26C276.32,157.62,272.09,155.28,272.09,150.69z M290.27,148.71v-2.79
		c-2.21-0.72-4.81-1.26-8.19-1.26c-5,0-8.46,2.12-8.46,5.85v0.09c0,3.73,3.38,5.67,7.15,5.67
		C286.26,156.27,290.27,152.76,290.27,148.71z"/>
	<path class="st0" d="M316.01,134.41h1.44v6.25c1.57-3.78,5.08-6.79,10.03-6.79c6.12,0,11.2,4.9,11.2,11.83v0.09
		c0,6.88-5.08,11.83-11.2,11.83c-4.99,0-8.5-2.97-10.03-6.71v13.36h-1.44V134.41z M337.16,145.83v-0.09
		c0-5.98-4.19-10.48-9.81-10.48c-5.58,0-9.99,4.59-9.99,10.44v0.09c0,5.85,4.46,10.44,9.99,10.44
		C333.06,156.23,337.16,151.91,337.16,145.83z"/>
	<path class="st0" d="M360.42,145.74v-0.09c0-6.66,4.59-11.79,10.84-11.79c6.84,0,10.39,5.85,10.39,11.92c0,0.23,0,0.32,0,0.5H362
		c0.27,6.17,4.63,9.99,9.72,9.99c3.51,0,6.34-1.85,8.15-4.19l1.08,0.86c-2.07,2.7-5.13,4.68-9.27,4.68
		C365.55,157.62,360.42,152.99,360.42,145.74z M380.09,144.98c-0.22-4.95-3.24-9.76-8.91-9.76c-5.13,0-8.91,4.18-9.18,9.76H380.09z"
		/>
	<path class="st0" d="M404.93,124.24h1.49v32.85h-1.49V124.24z"/>
</g>
<g>
	<path class="st1" d="M28,38.01c1.22-1.99,2.23-3.69,3.3-5.34c0.42-0.65,0.2-1.13-0.13-1.69c-3.51-6.06-7-12.12-10.49-18.18
		c-0.28-0.48-0.5-0.99-1.21-0.98c-2.02,0.02-4.05,0.01-6.34,0.01c1.9,3.37,3.56,6.54,5.45,9.56c0.89,1.42,1.69,2.29,0.62,3.56
		c-0.51,0.61-1.59,1.57-2.01,2.25c-0.7-0.16-6.02-9.79-8.45-14.11c-0.52-0.92-1.08-1.35-2.17-1.29C4.86,11.87,3.13,11.8,1,11.8
		c5.01,8.83,9.86,17.39,14.88,26.24c2.14-3.54,4.5-6.07,6.63-9.61C24.48,31.88,25.97,34.44,28,38.01z"/>
	<path class="st1" d="M41.88,14.2c-2.19,3.7-4.33,7.32-6.53,11.06c-0.57,0.96-1.97,0.96-2.53,0c-2.2-3.73-4.35-7.35-6.53-11.06
		c-0.58-0.98,0.13-2.22,1.27-2.22h13.07C41.75,11.98,42.46,13.22,41.88,14.2z"/>
	<g>
		<path class="st0" d="M42.6,36.44c-0.19,0.4-0.46,0.73-0.8,1c-0.34,0.27-0.75,0.47-1.21,0.6c-0.47,0.14-0.96,0.2-1.49,0.2
			c-0.74,0-1.48-0.13-2.24-0.39c-0.76-0.26-1.46-0.64-2.1-1.14l1.05-1.59c0.56,0.41,1.12,0.73,1.7,0.94
			c0.57,0.21,1.13,0.32,1.66,0.32c0.5,0,0.89-0.1,1.17-0.3c0.28-0.2,0.42-0.47,0.42-0.8v-0.04c0-0.19-0.06-0.36-0.18-0.5
			c-0.12-0.14-0.29-0.27-0.5-0.38c-0.21-0.11-0.46-0.21-0.74-0.29c-0.28-0.08-0.57-0.17-0.86-0.26c-0.37-0.12-0.75-0.25-1.13-0.39
			c-0.38-0.14-0.72-0.33-1.03-0.55c-0.3-0.23-0.55-0.5-0.75-0.83c-0.19-0.33-0.29-0.74-0.29-1.23v-0.04c0-0.48,0.09-0.91,0.28-1.3
			c0.19-0.39,0.45-0.72,0.78-0.99c0.33-0.27,0.72-0.48,1.16-0.62c0.45-0.14,0.92-0.21,1.42-0.21c0.65,0,1.3,0.1,1.96,0.31
			c0.66,0.21,1.26,0.49,1.8,0.85l-0.93,1.67c-0.49-0.3-0.99-0.53-1.49-0.71c-0.5-0.17-0.97-0.26-1.4-0.26c-0.45,0-0.8,0.1-1.06,0.29
			c-0.25,0.19-0.38,0.44-0.38,0.74v0.04c0,0.18,0.06,0.34,0.19,0.47c0.13,0.14,0.3,0.26,0.51,0.37c0.21,0.11,0.46,0.21,0.74,0.31
			c0.28,0.1,0.57,0.19,0.86,0.28c0.37,0.12,0.75,0.25,1.12,0.41c0.37,0.16,0.71,0.35,1.02,0.57c0.3,0.23,0.55,0.5,0.75,0.82
			c0.19,0.32,0.29,0.72,0.29,1.18v0.04C42.89,35.57,42.79,36.04,42.6,36.44z"/>
		<path class="st0" d="M51.53,38.05v-1.26c-0.35,0.41-0.79,0.76-1.34,1.05c-0.54,0.28-1.2,0.43-1.98,0.43c-0.49,0-0.96-0.07-1.4-0.2
			c-0.44-0.14-0.82-0.34-1.15-0.6c-0.33-0.26-0.59-0.59-0.79-0.99c-0.2-0.39-0.3-0.85-0.3-1.37v-0.04c0-0.56,0.1-1.04,0.31-1.45
			c0.21-0.41,0.49-0.76,0.86-1.03c0.37-0.27,0.81-0.47,1.32-0.61c0.51-0.14,1.06-0.2,1.66-0.2c0.62,0,1.15,0.04,1.58,0.12
			c0.43,0.08,0.85,0.18,1.25,0.31v-0.25c0-0.71-0.22-1.25-0.65-1.63c-0.43-0.37-1.06-0.56-1.87-0.56c-0.58,0-1.1,0.06-1.55,0.17
			c-0.45,0.12-0.91,0.27-1.38,0.47l-0.64-1.88c0.57-0.26,1.15-0.47,1.74-0.62c0.59-0.16,1.31-0.23,2.15-0.23
			c1.52,0,2.66,0.38,3.39,1.13c0.74,0.76,1.1,1.82,1.1,3.19v6.07H51.53z M51.59,33.7c-0.3-0.12-0.65-0.21-1.06-0.29
			c-0.41-0.08-0.84-0.12-1.29-0.12c-0.74,0-1.31,0.14-1.73,0.43c-0.41,0.28-0.62,0.69-0.62,1.22v0.04c0,0.49,0.19,0.87,0.57,1.12
			c0.38,0.26,0.85,0.39,1.41,0.39c0.39,0,0.75-0.05,1.08-0.16c0.33-0.1,0.62-0.25,0.86-0.44c0.25-0.19,0.44-0.41,0.57-0.68
			c0.14-0.26,0.2-0.56,0.2-0.88V33.7z"/>
		<path class="st0" d="M63.36,27.81h2.36v10.24h-2.36v-1.61c-0.34,0.5-0.75,0.92-1.26,1.28c-0.5,0.36-1.15,0.54-1.93,0.54
			c-1.16,0-2.06-0.36-2.69-1.07c-0.63-0.71-0.95-1.67-0.95-2.87v-6.51h2.36v5.8c0,0.8,0.19,1.42,0.57,1.85
			c0.38,0.43,0.91,0.65,1.61,0.65c0.68,0,1.23-0.22,1.65-0.67c0.42-0.44,0.63-1.07,0.63-1.87V27.81z M60,26.53l2.05-3.18l2.13,0.95
			l-2.36,2.23H60z"/>
		<path class="st0" d="M76.36,38.05v-1.71c-0.37,0.53-0.84,0.98-1.4,1.36c-0.56,0.37-1.25,0.56-2.08,0.56
			c-0.61,0-1.19-0.12-1.76-0.35c-0.57-0.23-1.07-0.58-1.51-1.04c-0.44-0.46-0.79-1.02-1.06-1.68c-0.27-0.66-0.41-1.42-0.41-2.27
			s0.13-1.61,0.4-2.27c0.26-0.66,0.62-1.22,1.05-1.68c0.44-0.46,0.94-0.8,1.52-1.04c0.57-0.23,1.16-0.35,1.77-0.35
			c0.84,0,1.53,0.18,2.09,0.54c0.55,0.36,1.02,0.78,1.39,1.26V23.9h2.36v14.15H76.36z M76.16,31.57c-0.16-0.4-0.38-0.75-0.65-1.04
			c-0.27-0.29-0.59-0.51-0.95-0.67c-0.36-0.15-0.73-0.23-1.12-0.23c-0.4,0-0.78,0.07-1.13,0.22c-0.35,0.15-0.67,0.37-0.94,0.65
			c-0.27,0.28-0.48,0.63-0.64,1.04c-0.15,0.41-0.23,0.87-0.23,1.39c0,0.5,0.08,0.96,0.23,1.37c0.15,0.41,0.37,0.75,0.64,1.04
			c0.27,0.28,0.58,0.5,0.94,0.66c0.35,0.15,0.73,0.23,1.13,0.23c0.39,0,0.76-0.08,1.12-0.23c0.36-0.16,0.68-0.38,0.95-0.67
			c0.27-0.29,0.49-0.64,0.65-1.04c0.16-0.4,0.24-0.85,0.24-1.36S76.32,31.97,76.16,31.57z"/>
		<path class="st0" d="M84.45,35.69c0.53,0.45,1.18,0.67,1.94,0.67c0.58,0,1.09-0.1,1.51-0.31c0.43-0.21,0.85-0.51,1.26-0.91
			l1.38,1.22c-0.49,0.58-1.08,1.05-1.75,1.4c-0.68,0.35-1.49,0.52-2.43,0.52c-0.74,0-1.42-0.13-2.06-0.39
			c-0.64-0.26-1.2-0.62-1.67-1.09c-0.47-0.47-0.84-1.02-1.11-1.68c-0.27-0.65-0.41-1.38-0.41-2.18c0-0.74,0.12-1.43,0.37-2.07
			c0.25-0.65,0.59-1.21,1.04-1.7c0.45-0.48,0.97-0.87,1.58-1.15c0.61-0.28,1.28-0.43,2.02-0.43c0.81,0,1.53,0.15,2.14,0.45
			c0.61,0.3,1.12,0.7,1.53,1.2c0.41,0.5,0.71,1.09,0.92,1.76C90.9,31.68,91,32.39,91,33.12c0,0.1,0,0.21-0.01,0.31
			c-0.01,0.1-0.02,0.21-0.03,0.33h-7.52C83.58,34.6,83.92,35.25,84.45,35.69z M88.67,32.21c-0.04-0.37-0.12-0.73-0.25-1.06
			c-0.13-0.33-0.3-0.61-0.52-0.85c-0.22-0.24-0.48-0.43-0.79-0.57c-0.3-0.14-0.65-0.21-1.04-0.21c-0.72,0-1.32,0.25-1.79,0.75
			c-0.47,0.5-0.76,1.15-0.86,1.95H88.67z"/>
	</g>
	<g>
		<path class="st2" d="M35.34,12.9h1.81v2.28h2.31v1.77h-2.31v2.29h-1.81v-2.29h-2.31v-1.77h2.31V12.9z"/>
	</g>
	<g class="st3">
		<polygon class="st4" points="33.11,23.73 28.68,12.59 30.87,11.72 34.67,16.66 37.3,22.06 		"/>
		<path class="st5" d="M33.12,23.76L28.67,12.6l2.2-0.87l3.85,5.03l2.54,5.37C37.25,22.14,33.13,23.78,33.12,23.76z"/>
		<path class="st6" d="M33.13,23.8l-4.47-11.2l2.21-0.87l3.9,5.13l2.45,5.34C37.21,22.22,33.14,23.82,33.13,23.8z"/>
		<path class="st7" d="M33.14,23.83L28.65,12.6l2.23-0.87l3.95,5.23l2.35,5.3C37.16,22.3,33.16,23.87,33.14,23.83z"/>
		<path class="st8" d="M33.15,23.86l-4.52-11.26l2.24-0.87l4,5.32l2.26,5.27C37.11,22.38,33.18,23.91,33.15,23.86z"/>
		<path class="st9" d="M33.17,23.9l-4.54-11.28l2.25-0.87l4.06,5.42l2.16,5.24C37.06,22.46,33.19,23.96,33.17,23.9z"/>
		<path class="st10" d="M33.18,23.93l-4.56-11.31l2.26-0.87l4.11,5.51l2.07,5.21C37.01,22.54,33.21,24.01,33.18,23.93z"/>
		<path class="st11" d="M33.19,23.96l-4.58-11.34l2.27-0.86l4.16,5.61l1.98,5.17C36.97,22.62,33.23,24.05,33.19,23.96z"/>
		<path class="st12" d="M33.2,24l-4.6-11.37l2.28-0.86l4.21,5.7l1.88,5.14C36.92,22.7,33.24,24.1,33.2,24z"/>
		<path class="st13" d="M33.21,24.03l-4.62-11.4l2.3-0.86l4.26,5.8l1.79,5.11C36.87,22.78,33.26,24.14,33.21,24.03z"/>
		<path class="st14" d="M33.22,24.06l-4.64-11.43l2.31-0.86l4.31,5.89l1.69,5.08C36.82,22.86,33.27,24.19,33.22,24.06z"/>
		<path class="st15" d="M33.23,24.1l-4.66-11.46l2.32-0.86l4.36,5.99l1.6,5.04C36.77,22.94,33.29,24.24,33.23,24.1z"/>
		<path class="st16" d="M33.24,24.13l-4.68-11.49l2.33-0.86l4.42,6.09l1.5,5.01C36.72,23.02,33.31,24.28,33.24,24.13z"/>
		<path class="st17" d="M33.25,24.16l-4.7-11.52l2.34-0.86l4.47,6.18l1.41,4.98C36.68,23.1,33.32,24.33,33.25,24.16z"/>
		<path class="st18" d="M33.26,24.2l-4.72-11.55l2.35-0.86l4.52,6.28l1.32,4.94C36.63,23.18,33.34,24.38,33.26,24.2z"/>
		<path class="st19" d="M33.27,24.23l-4.75-11.58l2.37-0.86l4.57,6.37l1.22,4.91C36.58,23.26,33.36,24.42,33.27,24.23z"/>
		<path class="st20" d="M33.28,24.27l-4.77-11.61l2.38-0.86l4.62,6.47l1.13,4.88C36.53,23.34,33.37,24.47,33.28,24.27z"/>
		<path class="st21" d="M33.3,24.3l-4.79-11.64l2.39-0.85l4.67,6.56l1.03,4.85C36.48,23.42,33.39,24.51,33.3,24.3z"/>
		<path class="st22" d="M33.31,24.33L28.5,12.66l2.4-0.85l4.72,6.66l0.94,4.81C36.44,23.5,33.41,24.56,33.31,24.33z"/>
		<path class="st23" d="M33.32,24.37l-4.83-11.7l2.41-0.85l4.78,6.76l0.84,4.78C36.39,23.58,33.42,24.61,33.32,24.37z"/>
		<path class="st24" d="M33.33,24.4l-4.85-11.73l2.42-0.85l4.83,6.85l0.75,4.75C36.34,23.66,33.44,24.65,33.33,24.4z"/>
		<path class="st25" d="M33.34,24.43l-4.87-11.76l2.44-0.85l4.88,6.95l0.66,4.72C36.29,23.74,33.46,24.7,33.34,24.43z"/>
		<path class="st26" d="M33.35,24.47l-4.89-11.79l2.45-0.85l4.93,7.04l0.56,4.68C36.24,23.82,33.47,24.75,33.35,24.47z"/>
		<path class="st27" d="M33.36,24.5l-4.91-11.82l2.46-0.85l4.98,7.14l0.47,4.65C36.19,23.9,33.49,24.79,33.36,24.5z"/>
		<path class="st28" d="M33.37,24.53l-4.93-11.84l2.47-0.85l5.03,7.23l0.37,4.62C36.15,23.98,33.5,24.84,33.37,24.53z"/>
		<path class="st29" d="M33.38,24.57l-4.96-11.87l2.48-0.85l5.08,7.33l0.28,4.59C36.1,24.06,33.52,24.88,33.38,24.57z"/>
		<path class="st30" d="M33.39,24.6l-4.98-11.9l2.5-0.85l5.14,7.42l0.18,4.55C36.05,24.14,33.54,24.93,33.39,24.6z"/>
		<path class="st31" d="M33.4,24.63l-5-11.93l2.51-0.84l5.19,7.52l0.09,4.52C36,24.22,33.55,24.98,33.4,24.63z"/>
		<path class="st32" d="M33.41,24.67L28.4,12.7l2.52-0.84l5.24,7.62l0,4.49C35.95,24.3,33.57,25.02,33.41,24.67z"/>
		<path class="st33" d="M33.43,24.7l-5.04-11.99l2.53-0.84l5.29,7.71l-0.1,4.45C35.91,24.38,33.59,25.07,33.43,24.7z"/>
		<path class="st34" d="M33.44,24.73l-5.06-12.02l2.54-0.84l5.34,7.81l-0.19,4.42C35.86,24.46,33.6,25.12,33.44,24.73z"/>
		<path class="st35" d="M33.45,24.77l-5.08-12.05l2.55-0.84l5.39,7.9l-0.29,4.39C35.81,24.54,33.62,25.16,33.45,24.77z"/>
		<path class="st36" d="M33.46,24.8l-5.1-12.08l2.57-0.84l5.44,8l-0.38,4.36C35.76,24.62,33.64,25.21,33.46,24.8z"/>
		<path class="st37" d="M33.47,24.83l-5.12-12.11l2.58-0.84l5.5,8.09l-0.48,4.32C35.71,24.7,33.65,25.25,33.47,24.83z"/>
		<path class="st38" d="M33.48,24.87l-5.14-12.14l2.59-0.84l5.55,8.19l-0.57,4.29C35.66,24.78,33.67,25.3,33.48,24.87z"/>
		<path class="st39" d="M33.49,24.9l-5.17-12.17l2.6-0.84l5.6,8.28l-0.66,4.26C35.62,24.86,33.68,25.35,33.49,24.9z"/>
		<path class="st40" d="M33.5,24.94l-5.19-12.2l2.61-0.84l5.65,8.38l-0.76,4.23C35.57,24.94,33.7,25.39,33.5,24.94z"/>
		<path class="st41" d="M33.51,24.97l-5.21-12.23l2.62-0.83l5.7,8.48l-0.85,4.19C35.52,25.02,33.72,25.44,33.51,24.97z"/>
		<path class="st42" d="M33.52,25l-5.23-12.26l2.64-0.83l5.75,8.57l-0.95,4.16C35.47,25.1,33.73,25.49,33.52,25z"/>
		<path class="st43" d="M33.53,25.04l-5.25-12.29l2.65-0.83l5.8,8.67l-1.04,4.13C35.42,25.18,33.75,25.53,33.53,25.04z"/>
		<path class="st44" d="M33.54,25.07l-5.27-12.32l2.66-0.83l5.86,8.76l-1.14,4.1C35.38,25.26,33.77,25.58,33.54,25.07z"/>
		<path class="st45" d="M33.56,25.1l-5.29-12.35l2.67-0.83l5.91,8.86l-1.23,4.06C35.33,25.34,33.78,25.62,33.56,25.1z"/>
		<path class="st46" d="M33.57,25.14l-5.31-12.38l2.68-0.83l5.96,8.95l-1.32,4.03C35.28,25.42,33.8,25.67,33.57,25.14z"/>
		<path class="st47" d="M33.58,25.17l-5.33-12.4l2.69-0.83l6.01,9.05l-1.42,4C35.23,25.5,33.82,25.72,33.58,25.17z"/>
		<path class="st48" d="M33.59,25.2l-5.35-12.43l2.71-0.83L37,21.09l-1.51,3.96C35.18,25.58,33.83,25.76,33.59,25.2z"/>
		<path class="st49" d="M33.6,25.24l-5.37-12.46l2.72-0.83l6.11,9.24l-1.61,3.93C35.13,25.66,33.85,25.81,33.6,25.24z"/>
		<path class="st50" d="M33.61,25.27l-5.4-12.49l2.73-0.83l6.16,9.34l-1.7,3.9C35.09,25.74,33.86,25.85,33.61,25.27z"/>
		<path class="st51" d="M33.62,25.3L28.2,12.78l2.74-0.82l6.22,9.43l-1.8,3.87C35.04,25.82,33.88,25.9,33.62,25.3z"/>
		<path class="st52" d="M33.63,25.34l-5.44-12.55l2.75-0.82l6.27,9.53l-1.89,3.83C34.99,25.9,33.9,25.95,33.63,25.34z"/>
		<path class="st53" d="M33.64,25.37l-5.46-12.58l2.77-0.82l6.32,9.62l-1.98,3.8C34.94,25.98,33.91,25.99,33.64,25.37z"/>
		<path class="st54" d="M33.65,25.4l-5.48-12.61l2.78-0.82l6.37,9.72l-2.08,3.77C34.89,26.06,33.93,26.04,33.65,25.4z"/>
		<path d="M33.66,25.44l-5.5-12.64l2.79-0.82l6.42,9.81l-2.17,3.74C34.85,26.14,33.95,26.09,33.66,25.44z"/>
	</g>
	<path class="st1" d="M26.26,14.08l6.65,11.25c0.54,0.91,1.86,0.91,2.4,0l1.23-2.09c0.26-0.44,0.26-0.98,0-1.42l-5.47-9.17
		c-0.25-0.42-0.71-0.68-1.2-0.68h-2.4C26.38,11.98,25.71,13.15,26.26,14.08z"/>
</g>
</svg>
